HIERARCHY
ROOT Hips
{
  OFFSET 0.0273292 -0.436096 0.279869
  CHANNELS 6 Xposition Yposition Zposition Zrotation Xrotation Yrotation
  JOINT LHipJoint
  {
    OFFSET 0 0 0
    CHANNELS 6 Xposition Yposition Zposition Zrotation Xrotation Yrotation
    JOINT LeftUpLeg
    {
      OFFSET 1.36306 -1.79463 0
      CHANNELS 6 Xposition Yposition Zposition Zrotation Xrotation Yrotation
      JOINT LeftLeg
      {
        OFFSET 2.44807 -6.72613 0.000295034
        CHANNELS 6 Xposition Yposition Zposition Zrotation Xrotation Yrotation
        JOINT LeftFoot
        {
          OFFSET 2.5622 -7.03959 3.59965e-05
          CHANNELS 6 Xposition Yposition Zposition Zrotation Xrotation Yrotation
          JOINT LeftToeBase
          {
            OFFSET 0.15764 -0.43311 2.32255
            CHANNELS 6 Xposition Yposition Zposition Zrotation Xrotation Yrotation
            End Site
            {
              OFFSET 0 0 0
            }
          }
        }
      }
    }
  }
  JOINT RHipJoint
  {
    OFFSET 0 0 0
    CHANNELS 6 Xposition Yposition Zposition Zrotation Xrotation Yrotation
    JOINT RightUpLeg
    {
      OFFSET -1.30552 -1.79463 0
      CHANNELS 6 Xposition Yposition Zposition Zrotation Xrotation Yrotation
      JOINT RightLeg
      {
        OFFSET -2.54234 -6.98562 -0.000396375
        CHANNELS 6 Xposition Yposition Zposition Zrotation Xrotation Yrotation
        JOINT RightFoot
        {
          OFFSET -2.56826 -7.05623 -4.47982e-05
          CHANNELS 6 Xposition Yposition Zposition Zrotation Xrotation Yrotation
          JOINT RightToeBase
          {
            OFFSET -0.16473 -0.45259 2.36315
            CHANNELS 6 Xposition Yposition Zposition Zrotation Xrotation Yrotation
            End Site
            {
              OFFSET 0 0 0
            }
          }
        }
      }
    }
  }
  JOINT LowerBack
  {
    OFFSET 0 0 0
    CHANNELS 6 Xposition Yposition Zposition Zrotation Xrotation Yrotation
    JOINT Spine
    {
      OFFSET 0.0282699 2.03559 0
      CHANNELS 6 Xposition Yposition Zposition Zrotation Xrotation Yrotation
      JOINT Spine1
      {
        OFFSET 0.05672 2.04885 -0.04275
        CHANNELS 6 Xposition Yposition Zposition Zrotation Xrotation Yrotation
        JOINT Neck
        {
          OFFSET 0 0 0
          CHANNELS 6 Xposition Yposition Zposition Zrotation Xrotation Yrotation
          JOINT Neck1
          {
            OFFSET -0.05417 1.74624 0.17202
            CHANNELS 6 Xposition Yposition Zposition Zrotation Xrotation Yrotation
            JOINT Head
            {
              OFFSET 0.10407 1.76136 -0.12397
              CHANNELS 6 Xposition Yposition Zposition Zrotation Xrotation Yrotation
              End Site
              {
                OFFSET 0 0 0
              }
            }
          }
        }
        JOINT LeftShoulder
        {
          OFFSET 0 0 0
          CHANNELS 6 Xposition Yposition Zposition Zrotation Xrotation Yrotation
          JOINT LeftArm
          {
            OFFSET 3.36241 1.20089 -0.311211
            CHANNELS 6 Xposition Yposition Zposition Zrotation Xrotation Yrotation
            JOINT LeftForeArm
            {
              OFFSET 4.983 0.000197398 0.000166057
              CHANNELS 6 Xposition Yposition Zposition Zrotation Xrotation Yrotation
              JOINT LeftHand
              {
                OFFSET 3.48356 0 1.87849e-05
                CHANNELS 6 Xposition Yposition Zposition Zrotation Xrotation Yrotation
                JOINT LeftFingerBase
                {
                  OFFSET 0 0 0
                  CHANNELS 6 Xposition Yposition Zposition Zrotation Xrotation Yrotation
                  JOINT LeftHandIndex1
                  {
                    OFFSET 0.71526 0 0
                    CHANNELS 6 Xposition Yposition Zposition Zrotation Xrotation Yrotation
                    End Site
                    {
                      OFFSET 0 0 0
                    }
                  }
                }
                JOINT LThumb
                {
                  OFFSET 0 0 0
                  CHANNELS 6 Xposition Yposition Zposition Zrotation Xrotation Yrotation
                  End Site
                  {
                    OFFSET 0 0 0
                  }
                }
              }
            }
          }
        }
        JOINT RightShoulder
        {
          OFFSET 0 0 0
          CHANNELS 6 Xposition Yposition Zposition Zrotation Xrotation Yrotation
          JOINT RightArm
          {
            OFFSET -3.1366 1.37405 -0.404651
            CHANNELS 6 Xposition Yposition Zposition Zrotation Xrotation Yrotation
            JOINT RightForeArm
            {
              OFFSET -5.2419 -5.8808e-05 -0.000165864
              CHANNELS 6 Xposition Yposition Zposition Zrotation Xrotation Yrotation
              JOINT RightHand
              {
                OFFSET -3.44417 0 -2.00002e-05
                CHANNELS 6 Xposition Yposition Zposition Zrotation Xrotation Yrotation
                JOINT RightFingerBase
                {
                  OFFSET 0 0 0
                  CHANNELS 6 Xposition Yposition Zposition Zrotation Xrotation Yrotation
                  JOINT RightHandIndex1
                  {
                    OFFSET -0.62253 0 0
                    CHANNELS 6 Xposition Yposition Zposition Zrotation Xrotation Yrotation
                    End Site
                    {
                      OFFSET 0 0 0
                    }
                  }
                }
                JOINT RThumb
                {
                  OFFSET 0 0 0
                  CHANNELS 6 Xposition Yposition Zposition Zrotation Xrotation Yrotation
                  End Site
                  {
                    OFFSET 0 0 0
                  }
                }
              }
            }
          }
        }
      }
    }
  }
}
MOTION
Frames:	4
Frame Time:	0.00833333
-0.0741616 2.09601 -0.0580401 0.788616 -2.32954 2.03168 0 0 0 1.61513e-16 7.95139e-16 -7.95139e-16 1.36306 -1.79463 6.37822e-08 -12.7125 -3.37912 9.78675 2.44809 -6.72614 -2.88661e-05 -0.451054 9.1768 -1.56182 2.5622 -7.03959 -1.87459e-05 -6.62092 -4.71251 -1.7417 0.15764 -0.43311 2.32255 5.46658e-16 0 -1.59028e-15 0 0 0 1.61513e-16 7.95139e-16 -7.95139e-16 -1.30552 -1.79463 -9.59887e-09 17.8604 -12.6078 -8.3013 -2.54244 -6.9856 0.000503903 2.47745 25.8082 -8.45448 -2.56826 -7.05622 4.51957e-05 -0.858882 -14.6998 5.11599 -0.16473 -0.45259 2.36315 -4.32357e-15 -3.97569e-16 -0 0 0 0 1.61513e-16 7.95139e-16 -7.95139e-16 0.02827 2.03559 4.47485e-07 0.674626 3.33886 0.555944 0.05672 2.04885 -0.04275 6.27414e-16 1.98785e-16 3.97569e-16 0 0 0 4.22417e-16 1.98785e-16 7.95139e-16 -0.05417 1.74624 0.17202 0.0765031 1.54598 -0.2781 0.10407 1.76136 -0.12397 -1.61513e-16 -3.97569e-16 -7.95139e-16 0 0 0 4.22417e-16 1.98785e-16 7.95139e-16 3.36241 1.20089 -0.31121 -81.8917 5.67457 -0.902497 4.983 0.000188411 0.000168558 1.00086 0.293338 -10.1401 3.48356 4.97784e-06 -1.0964e-05 0.000100551 1.59028e-15 0.000188127 0 0 0 -2.38542e-15 0 -1.59028e-15 0.71526 0 0 -8.94531e-16 -3.97569e-16 1.59028e-15 0 0 0 -2.38542e-15 0 -1.59028e-15 0 0 0 4.22417e-16 1.98785e-16 7.95139e-16 -3.1366 1.37405 -0.40465 82.6587 23.9958 0.599445 -5.24191 0.000244453 0.00010752 -1.00038 0.285676 9.80351 -3.44417 6.42399e-06 -1.20969e-05 -7.82347e-05 9.54166e-15 -0.000188603 0 0 0 0 3.18055e-15 -0 -0.62253 0 0 0 0 -0 0 0 0 0 3.18055e-15 -0 
-0.0741644 1.53624 -0.0612121 0.987466 2.38904 0.598217 0 0 0 -3.60297e-16 0 2.98177e-16 1.36306 -1.79463 6.37822e-08 -9.99565 -13.6996 8.37682 2.44809 -6.72614 -2.88661e-05 0.419005 16.4613 2.16856 2.5622 -7.03959 -1.87459e-05 -6.43257 -6.03452 -2.31291 0.15764 -0.43311 2.32255 7.35503e-15 3.97569e-16 -0 0 0 0 -3.60297e-16 0 2.98177e-16 -1.30552 -1.79463 -9.59887e-09 14.8937 -22.491 -6.69288 -2.54244 -6.9856 0.000503903 3.48271 33.1158 -10.4205 -2.56826 -7.05622 4.51957e-05 -0.570685 -16.2021 6.0255 -0.16473 -0.45259 2.36315 2.5842e-15 3.97569e-16 1.59028e-15 0 0 0 -3.60297e-16 0 2.98177e-16 0.02827 2.03559 4.47485e-07 -0.124462 4.46213 0.163005 0.05672 2.04885 -0.04275 -7.45443e-17 7.95139e-16 -0 0 0 0 -9.93923e-17 7.95139e-16 -9.93923e-17 -0.05417 1.74624 0.17202 -0.266836 1.17985 -0.0392041 0.10407 1.76136 -0.12397 -3.72721e-17 0 -1.98785e-16 0 0 0 -9.93923e-17 7.95139e-16 -9.93923e-17 3.36241 1.20089 -0.31121 -85.3319 0.129246 5.45905 4.983 0.000188411 0.000168558 0.922321 -2.03479 -14.3294 3.48356 4.97784e-06 -1.0964e-05 0.821147 -0.871867 3.47129 0 0 0 -1.40392e-15 -3.97569e-16 -1.98785e-16 0.71526 4.44089e-16 0 -1.39149e-15 -3.97569e-16 -1.98785e-16 0 0 0 -1.40392e-15 -3.97569e-16 -1.98785e-16 0 0 0 -9.93923e-17 7.95139e-16 -9.93923e-17 -3.1366 1.37405 -0.40465 84.7738 21.0798 -3.91499 -5.24191 0.000244453 0.00010752 -1.38771 0.256088 18.4498 -3.44417 6.42399e-06 -1.20969e-05 -2.97918 -1.67552 -1.11645 0 0 0 3.97569e-16 3.18055e-15 -1.59028e-15 -0.62253 4.44089e-16 0 1.19271e-15 3.18055e-15 -7.95139e-16 0 0 0 3.97569e-16 3.18055e-15 -1.59028e-15 
-0.074184 0.231555 -0.0712119 2.34891 12.7606 -2.61808 0 0 0 -2.20695e-32 3.18055e-15 3.97569e-16 1.36306 -1.79463 6.37822e-08 -5.68408 -36.7998 5.43134 2.44809 -6.72614 -2.88661e-05 -1.78348 32.809 12.4891 2.5622 -7.03959 -1.87459e-05 -6.08853 -9.14704 -3.66807 0.15764 -0.43311 2.32255 1.88845e-15 -5.96354e-16 -0 0 0 0 -2.20695e-32 3.18055e-15 3.97569e-16 -1.30552 -1.79463 -9.59887e-09 10.4379 -44.3632 -2.66185 -2.54244 -6.9856 0.000503903 8.66647 49.6894 -17.3921 -2.56826 -7.05622 4.51957e-05 0.217451 -19.7384 8.23911 -0.16473 -0.45259 2.36315 -7.60351e-15 3.97569e-16 1.59028e-15 0 0 0 -2.20695e-32 3.18055e-15 3.97569e-16 0.02827 2.03559 4.47485e-07 -1.92401 7.06889 -0.706335 0.05672 2.04885 -0.04275 -1.98785e-16 -3.18055e-15 -0 0 0 0 -3.97569e-16 -3.18055e-15 -0 -0.05417 1.74624 0.17202 -1.0597 0.293888 0.529284 0.10407 1.76136 -0.12397 3.97569e-16 0 3.97569e-16 0 0 0 -3.97569e-16 -3.18055e-15 -0 3.36241 1.20089 -0.31121 -88.5928 -11.3722 19.8503 4.983 0.000188411 0.000168558 -0.428984 -6.76021 -23.6915 3.48356 4.97784e-06 -1.0964e-05 2.99706 -2.74271 11.1193 0 0 0 -1.59028e-15 4.77083e-15 3.18055e-15 0.71526 0 4.44089e-16 -1.59028e-15 0 3.18055e-15 0 0 0 -1.59028e-15 4.77083e-15 3.18055e-15 0 0 0 -3.97569e-16 -3.18055e-15 -0 -3.1366 1.37405 -0.40465 87.7525 14.419 -13.3201 -5.24191 0.000244453 0.00010752 -2.31878 0.103448 37.4715 -3.44417 6.42399e-06 -1.20969e-05 -9.77748 -5.35135 -3.73419 0 0 0 1.14301e-15 7.95139e-16 7.95139e-16 -0.62253 -4.44089e-16 0 -5.96354e-16 1.59028e-15 3.97569e-16 0 0 0 1.14301e-15 7.95139e-16 7.95139e-16 
-0.0742372 -1.25617 -0.0887651 5.17196 23.0366 -6.20062 0 0 0 -7.95139e-16 0 1.59028e-15 1.36306 -1.79463 6.37822e-08 -5.32538 -60.4402 0.123768 2.44809 -6.72614 -2.88661e-05 -14.4924 48.408 30.8934 2.5622 -7.03959 -1.87459e-05 -5.86363 -12.7684 -5.27305 0.15764 -0.43311 2.32255 -1.3418e-15 1.98785e-16 1.59028e-15 0 0 0 -7.95139e-16 0 1.59028e-15 -1.30552 -1.79463 -9.59887e-09 12.1313 -66.0328 6.22595 -2.54244 -6.9856 0.000503903 26.178 66.668 -36.3781 -2.56826 -7.05622 4.51957e-05 1.30324 -23.8549 10.9782 -0.16473 -0.45259 2.36315 3.85145e-15 0 -0 0 0 0 -7.95139e-16 0 1.59028e-15 0.02827 2.03559 4.47485e-07 -3.87837 10.0139 -1.58865 0.05672 2.04885 -0.04275 -3.97569e-16 -6.36111e-15 -7.95139e-16 0 0 0 7.95139e-16 -3.18055e-15 -0 -0.05417 1.74624 0.17202 -1.95145 -0.792952 1.20563 0.10407 1.76136 -0.12397 3.97569e-16 -3.18055e-15 7.95139e-16 0 0 0 7.95139e-16 -3.18055e-15 -0 3.36241 1.20089 -0.31121 -86.0594 -20.0619 35.9098 4.983 0.000188411 0.000168558 -3.30321 -10.6192 -33.357 3.48356 4.97784e-06 -1.0964e-05 5.66677 -4.46611 18.8012 0 0 0 -3.18055e-15 6.36111e-15 -0 0.71526 -4.44089e-16 -8.88178e-16 -1.59028e-15 3.18055e-15 6.36111e-15 0 0 0 -3.18055e-15 6.36111e-15 -0 0 0 0 7.95139e-16 -3.18055e-15 -0 -3.1366 1.37405 -0.40465 88.6013 7.83413 -22.3535 -5.24191 0.000244453 0.00010752 -3.38051 -0.137251 56.4934 -3.44417 6.42399e-06 -1.20969e-05 -16.9736 -8.98742 -6.77133 0 0 0 4.27387e-15 -7.95139e-16 -1.59028e-15 -0.62253 0 2.22045e-16 4.32357e-15 -7.95139e-16 -2.38542e-15 0 0 0 4.27387e-15 -7.95139e-16 -1.59028e-15 
